<svg xmlns="http://www.w3.org/2000/svg" viewBox="0 0 512 512">
<title>Lernspiele</title>
<rect width="512" height="512" fill="#fbf3e2"/>
<g stroke="#3b2614" stroke-width="9" stroke-linejoin="round" stroke-linecap="round">
<!-- hinteres Heft (Hasenklasse) -->
<g transform="rotate(-9 256 256)">
<rect x="150" y="112" width="230" height="290" rx="18" fill="#fcebf2"/>
<path d="M150 130 Q150 112 168 112 H196 V402 H168 Q150 402 150 384 Z" fill="#d9568a"/>
</g>
<!-- vorderes Heft (Erdmännchenklasse) -->
<g transform="rotate(6 256 256)">
<rect x="118" y="128" width="246" height="296" rx="18" fill="#fffaf0"/>
<path d="M118 146 Q118 128 136 128 H166 V424 H136 Q118 424 118 406 Z" fill="#e07a1f"/>
<path d="M196 196 H334 M196 246 H334 M196 296 H334 M196 346 H300" stroke="#e6d3b0" stroke-width="7"/>
<!-- 1 + 2 als Rechenzeichen -->
<path d="M206 218 l14 -12 v52" stroke="#3b2614" stroke-width="11" fill="none"/>
<path d="M248 236 h30 M263 221 v30" stroke="#e07a1f" stroke-width="11"/>
<path d="M294 218 q10 -14 24 -6 q12 10 -2 24 l-22 22 h28" stroke="#3b2614" stroke-width="11" fill="none"/>
</g>
<!-- Stift -->
<g transform="translate(40 14) rotate(38 300 330)">
<rect x="272" y="266" width="48" height="160" fill="#f2c14e"/>
<path d="M272 266 H320 V248 Q320 234 306 234 H286 Q272 234 272 248 Z" fill="#d9568a"/>
<path d="M272 426 L296 476 L320 426 Z" fill="#efd6ab"/>
<path d="M288 459 L296 476 L304 459 Z" fill="#3b2614"/>
<path d="M296 274 V420" stroke-width="6" stroke="#d9a23a"/>
</g>
</g>
</svg>
