<svg xmlns="http://www.w3.org/2000/svg" viewBox="0 0 200 200" width="200" height="200"><g fill="none" stroke="#3b2614" stroke-width="4" stroke-linejoin="round" stroke-linecap="round">
    <ellipse cx="80" cy="70" rx="30" ry="22" fill="#fff" fill-opacity=".85" transform="rotate(-30 80 70)"/>
    <ellipse cx="118" cy="66" rx="30" ry="22" fill="#fff" fill-opacity=".85" transform="rotate(30 118 66)"/>
    <path d="M168 114 L188 116 L168 124" fill="#3b2614"/>
    <defs><clipPath id="k"><ellipse cx="110" cy="118" rx="60" ry="42"/></clipPath></defs>
    <ellipse cx="110" cy="118" rx="60" ry="42" fill="#ffd23f"/>
    <g clip-path="url(#k)" fill="#3b2614" stroke="none"><rect x="96" y="70" width="16" height="100"/><rect x="128" y="70" width="16" height="100"/><rect x="160" y="70" width="16" height="100"/></g>
    <ellipse cx="110" cy="118" rx="60" ry="42"/>
    <circle cx="52" cy="116" r="32" fill="#ffd23f"/>
    <path d="M40 88 Q30 62 18 60 M58 86 Q62 60 74 54" stroke-width="3.5"/>
    <circle cx="42" cy="110" r="5.5" fill="#3b2614" stroke="none"/><circle cx="43.925" cy="108.075" r="1.76" fill="#fff" stroke="none"/><circle cx="64" cy="110" r="5.5" fill="#3b2614" stroke="none"/><circle cx="65.925" cy="108.075" r="1.76" fill="#fff" stroke="none"/><circle cx="36" cy="126" r="5" fill="#e98a7a" opacity=".5" stroke="none"/><circle cx="70" cy="126" r="5" fill="#e98a7a" opacity=".5" stroke="none"/>
    <path d="M46 126 Q53 132 60 126" fill="none" stroke-width="3"/></g></svg>
