<svg xmlns="http://www.w3.org/2000/svg" viewBox="0 0 200 200" width="200" height="200"><g fill="none" stroke="#3b2614" stroke-width="4" stroke-linejoin="round" stroke-linecap="round">
    <path d="M70 26 Q100 44 130 26 L170 50 L188 150 L160 156 L154 96 V184 H46 V96 L40 156 L12 150 L30 50 Z" fill="#6fae4f"/>
    <path d="M70 26 Q100 44 130 26 L124 40 Q100 56 76 40 Z" fill="#4f8a3c"/>
    <path d="M100 46 V184" stroke-width="4"/>
    <path d="M100 46 V184" stroke="#dfe3e6" stroke-width="1.5" stroke-dasharray="3 3"/>
    <rect x="58" y="130" width="28" height="22" rx="3" fill="#4f8a3c"/><rect x="114" y="130" width="28" height="22" rx="3" fill="#4f8a3c"/>
    <path d="M12 150 L40 156 M188 150 L160 156" stroke-width="10" stroke="#ffd23f"/></g></svg>
