<svg xmlns="http://www.w3.org/2000/svg" viewBox="0 0 200 200" width="200" height="200"><g fill="none" stroke="#3b2614" stroke-width="4" stroke-linejoin="round" stroke-linecap="round">
    <path d="M44 58 Q16 50 18 70 Q34 78 54 72 Z M156 58 Q184 50 182 70 Q166 78 146 72 Z" fill="#fff"/>
    <path d="M66 40 Q60 18 72 14 M134 40 Q140 18 128 14" stroke-width="7" stroke="#efd6ab"/>
    <path d="M66 40 Q60 18 72 14 M134 40 Q140 18 128 14" stroke-width="2"/>
    <path d="M100 34 C56 34 46 70 52 100 C56 120 60 130 64 140 L136 140 C140 130 144 120 148 100 C154 70 144 34 100 34 Z" fill="#fff"/>
    <path d="M60 50 C70 40 90 50 84 70 C76 86 56 80 56 66 Z" fill="#3b2614" stroke="none"/>
    <path d="M132 86 C146 80 150 100 142 112 C132 116 124 100 132 86 Z" fill="#3b2614" stroke="none"/>
    <path d="M58 140 C58 110 142 110 142 140 C144 182 56 182 58 140 Z" fill="#f4a7c0"/>
    <ellipse cx="82" cy="146" rx="7" ry="9" fill="#d9568a"/><ellipse cx="118" cy="146" rx="7" ry="9" fill="#d9568a"/>
    <circle cx="80" cy="92" r="9" fill="#fff" stroke="none"/><circle cx="80" cy="92" r="6" fill="#3b2614" stroke="none"/><circle cx="82.1" cy="89.9" r="1.92" fill="#fff" stroke="none"/><circle cx="120" cy="92" r="6" fill="#3b2614" stroke="none"/><circle cx="122.1" cy="89.9" r="1.92" fill="#fff" stroke="none"/>
    <path d="M90 166 Q100 172 110 166" fill="none" stroke-width="3"/></g></svg>
