<svg xmlns="http://www.w3.org/2000/svg" viewBox="0 0 200 200" width="200" height="200"><g fill="none" stroke="#3b2614" stroke-width="4" stroke-linejoin="round" stroke-linecap="round">
    <ellipse cx="100" cy="186" rx="50" ry="6" fill="#3b2614" opacity=".12" stroke="none"/>
    <path d="M70 184 H130 L118 168 H82 Z" fill="#f2b134"/>
    <path d="M100 168 V40 M30 50 H170" stroke-width="8"/>
    <path d="M100 168 V40 M30 50 H170" stroke="#f2b134" stroke-width="3"/>
    <circle cx="100" cy="36" r="9" fill="#f2b134"/>
    <path d="M30 50 L12 110 M30 50 L48 110 M170 50 L152 110 M170 50 L188 110" stroke-width="2.5"/>
    <path d="M6 110 H54 Q50 132 30 132 Q10 132 6 110 Z" fill="#f2b134"/>
    <path d="M146 110 H194 Q190 132 170 132 Q150 132 146 110 Z" fill="#f2b134"/></g></svg>
